<svg width="100" height="100" viewBox="0 0 100 100" fill="none" xmlns="http://www.w3.org/2000/svg">
<path d="M45.8332 79.1667H54.1665V61.7709L60.8332 68.4375L66.6665 62.5L49.9998 45.8334L33.3332 62.5L39.2707 68.3334L45.8332 61.7709V79.1667ZM24.9998 91.6667C22.7082 91.6667 20.7464 90.8507 19.1144 89.2188C17.4825 87.5869 16.6665 85.6251 16.6665 83.3334V16.6667C16.6665 14.375 17.4825 12.4132 19.1144 10.7813C20.7464 9.14935 22.7082 8.33337 24.9998 8.33337H58.3332L83.3332 33.3334V83.3334C83.3332 85.6251 82.5172 87.5869 80.8853 89.2188C79.2533 90.8507 77.2915 91.6667 74.9998 91.6667H24.9998ZM54.1665 37.5V16.6667H24.9998V83.3334H74.9998V37.5H54.1665Z" fill="black" fill-opacity="0.75"/>
</svg>
