<svg width="139" height="66" viewBox="0 0 139 66" fill="none" xmlns="http://www.w3.org/2000/svg">
<path d="M60.66 40V26H67.02C68.54 26 69.88 26.2933 71.04 26.88C72.2 27.4533 73.1067 28.26 73.76 29.3C74.4133 30.34 74.74 31.5733 74.74 33C74.74 34.4133 74.4133 35.6467 73.76 36.7C73.1067 37.74 72.2 38.5533 71.04 39.14C69.88 39.7133 68.54 40 67.02 40H60.66ZM63.9 37.34H66.86C67.7933 37.34 68.6 37.1667 69.28 36.82C69.9733 36.46 70.5067 35.9533 70.88 35.3C71.2667 34.6467 71.46 33.88 71.46 33C71.46 32.1067 71.2667 31.34 70.88 30.7C70.5067 30.0467 69.9733 29.5467 69.28 29.2C68.6 28.84 67.7933 28.66 66.86 28.66H63.9V37.34ZM82.3034 40.16C81.0768 40.16 79.9968 39.92 79.0634 39.44C78.1434 38.96 77.4301 38.3067 76.9234 37.48C76.4168 36.64 76.1634 35.6867 76.1634 34.62C76.1634 33.54 76.4101 32.5867 76.9034 31.76C77.4101 30.92 78.0968 30.2667 78.9634 29.8C79.8301 29.32 80.8101 29.08 81.9034 29.08C82.9568 29.08 83.9034 29.3067 84.7434 29.76C85.5968 30.2 86.2701 30.84 86.7634 31.68C87.2568 32.5067 87.5034 33.5 87.5034 34.66C87.5034 34.78 87.4968 34.92 87.4834 35.08C87.4701 35.2267 87.4568 35.3667 87.4434 35.5H78.7034V33.68H85.8034L84.6034 34.22C84.6034 33.66 84.4901 33.1733 84.2634 32.76C84.0368 32.3467 83.7234 32.0267 83.3234 31.8C82.9234 31.56 82.4568 31.44 81.9234 31.44C81.3901 31.44 80.9168 31.56 80.5034 31.8C80.1034 32.0267 79.7901 32.3533 79.5634 32.78C79.3368 33.1933 79.2234 33.6867 79.2234 34.26V34.74C79.2234 35.3267 79.3501 35.8467 79.6034 36.3C79.8701 36.74 80.2368 37.08 80.7034 37.32C81.1834 37.5467 81.7434 37.66 82.3834 37.66C82.9568 37.66 83.4568 37.5733 83.8834 37.4C84.3234 37.2267 84.7234 36.9667 85.0834 36.62L86.7434 38.42C86.2501 38.98 85.6301 39.4133 84.8834 39.72C84.1368 40.0133 83.2768 40.16 82.3034 40.16ZM92.3053 40L87.7853 29.24H91.0053L94.7653 38.5H93.1653L97.0653 29.24H100.065L95.5253 40H92.3053ZM101.558 40V26H104.798V37.36H111.818V40H101.558ZM120.087 40V37.9L119.887 37.44V33.68C119.887 33.0133 119.68 32.4933 119.267 32.12C118.867 31.7467 118.247 31.56 117.407 31.56C116.834 31.56 116.267 31.6533 115.707 31.84C115.16 32.0133 114.694 32.2533 114.307 32.56L113.187 30.38C113.774 29.9667 114.48 29.6467 115.307 29.42C116.134 29.1933 116.974 29.08 117.827 29.08C119.467 29.08 120.74 29.4667 121.647 30.24C122.554 31.0133 123.007 32.22 123.007 33.86V40H120.087ZM116.807 40.16C115.967 40.16 115.247 40.02 114.647 39.74C114.047 39.4467 113.587 39.0533 113.267 38.56C112.947 38.0667 112.787 37.5133 112.787 36.9C112.787 36.26 112.94 35.7 113.247 35.22C113.567 34.74 114.067 34.3667 114.747 34.1C115.427 33.82 116.314 33.68 117.407 33.68H120.267V35.5H117.747C117.014 35.5 116.507 35.62 116.227 35.86C115.96 36.1 115.827 36.4 115.827 36.76C115.827 37.16 115.98 37.48 116.287 37.72C116.607 37.9467 117.04 38.06 117.587 38.06C118.107 38.06 118.574 37.94 118.987 37.7C119.4 37.4467 119.7 37.08 119.887 36.6L120.367 38.04C120.14 38.7333 119.727 39.26 119.127 39.62C118.527 39.98 117.754 40.16 116.807 40.16ZM132.191 40.16C131.244 40.16 130.431 39.96 129.751 39.56C129.071 39.16 128.551 38.5533 128.191 37.74C127.831 36.9133 127.651 35.8733 127.651 34.62C127.651 33.3533 127.837 32.3133 128.211 31.5C128.597 30.6867 129.131 30.08 129.811 29.68C130.491 29.28 131.284 29.08 132.191 29.08C133.204 29.08 134.111 29.3067 134.911 29.76C135.724 30.2133 136.364 30.8533 136.831 31.68C137.311 32.5067 137.551 33.4867 137.551 34.62C137.551 35.74 137.311 36.7133 136.831 37.54C136.364 38.3667 135.724 39.0133 134.911 39.48C134.111 39.9333 133.204 40.16 132.191 40.16ZM125.831 40V25.16H128.951V31.42L128.751 34.6L128.811 37.8V40H125.831ZM131.651 37.6C132.171 37.6 132.631 37.48 133.031 37.24C133.444 37 133.771 36.66 134.011 36.22C134.264 35.7667 134.391 35.2333 134.391 34.62C134.391 33.9933 134.264 33.46 134.011 33.02C133.771 32.58 133.444 32.24 133.031 32C132.631 31.76 132.171 31.64 131.651 31.64C131.131 31.64 130.664 31.76 130.251 32C129.837 32.24 129.511 32.58 129.271 33.02C129.031 33.46 128.911 33.9933 128.911 34.62C128.911 35.2333 129.031 35.7667 129.271 36.22C129.511 36.66 129.837 37 130.251 37.24C130.664 37.48 131.131 37.6 131.651 37.6Z" fill="black"/>
<path d="M16.1785 0.453262C15.5626 1.04084 15.2922 1.77951 15.2922 2.93789C15.2922 3.96196 15.5776 4.75099 16.0433 5.03639C16.3437 5.20427 16.3437 5.40572 16.3437 14.9917V24.7791L8.42733 40.7109C4.07109 49.491 0.375784 57.0792 0.225569 57.5829C-0.585595 60.2018 0.856474 63.3915 3.50027 64.8856L4.40156 65.3893H24.0047H43.6078L44.464 64.9192C45.7409 64.2141 46.8825 62.9718 47.4683 61.6456C47.8889 60.6886 47.9641 60.3529 47.9641 59.2617C47.9641 58.5566 47.8739 57.7507 47.7537 57.415C47.6336 57.096 44.1035 49.9107 39.9275 41.4664C35.7365 33.022 32.1614 25.7864 31.9811 25.4002C31.6657 24.6951 31.6657 24.5608 31.6657 14.9581C31.6657 5.40572 31.6657 5.20427 31.9661 5.03639C32.4318 4.75099 32.7172 3.96196 32.7172 2.93789C32.7172 1.77951 32.4468 1.04084 31.8309 0.453262L31.3352 -1.52588e-05H24.0047H16.6742L16.1785 0.453262ZM30.6142 2.01455C30.8245 2.24958 30.9146 2.56855 30.9146 3.08898C30.9146 3.8948 30.6292 4.36487 30.1485 4.36487C29.8631 4.36487 29.8631 4.61669 29.8631 15.4114V26.4579L36.8781 40.8788C40.7387 48.8195 44.0584 55.7698 44.2537 56.3238C45.4104 59.4799 43.8331 62.2667 40.4983 62.955C39.9576 63.0725 33.994 63.1061 23.539 63.0893C7.85652 63.039 7.39085 63.0222 6.68483 62.7032C5.04749 61.9477 3.71057 60.2522 3.48524 58.6741C3.28996 57.1128 3.42516 56.7938 10.9359 41.2985L18.1463 26.4579V15.4114V4.36487H17.7707C17.3051 4.36487 17.0948 3.92838 17.0948 2.95467C17.0948 1.62842 16.8694 1.67879 24.0347 1.67879C30.1185 1.67879 30.3288 1.69558 30.6142 2.01455Z" fill="black"/>
<path d="M26.348 5.06991C26.1377 5.40567 26.1077 6.61441 26.1077 14.9413C26.1077 20.1623 26.1678 24.5104 26.2278 24.6112C26.2879 24.7119 26.4832 24.8798 26.6785 24.9973C26.9639 25.1652 27.0991 25.1652 27.3995 24.9301L27.76 24.6783V14.8909C27.76 7.50417 27.715 5.05312 27.5798 4.90203C27.2793 4.56627 26.6034 4.667 26.348 5.06991Z" fill="black"/>
<path d="M28.6763 31.1417C28.406 31.276 27.6098 31.7797 26.9188 32.2329C25.2665 33.3577 23.9295 34.0293 22.6827 34.3482C21.3759 34.7008 19.0325 34.5833 17.7407 34.1132L16.8093 33.7774L11.6419 44.3875C8.80284 50.2129 6.39939 55.2325 6.29424 55.5515C5.72342 57.4989 6.5496 59.547 8.39725 60.6886L9.20842 61.1923H24.3051C39.3416 61.1923 39.4017 61.1923 40.0927 60.8397C41.0241 60.3529 41.8653 59.4799 42.1957 58.6741C42.5262 57.8682 42.5563 56.5252 42.2708 55.6019C42.0455 54.88 31.7107 32.8709 31.1699 31.9475C30.5691 30.9403 29.6978 30.6549 28.6763 31.1417ZM27.9703 38.9482C28.406 39.4182 28.3459 40.2576 27.8502 40.7445C27.3995 41.181 27.1892 41.2145 26.6484 40.9459C26.1077 40.6605 25.8373 39.8547 26.1227 39.3007C26.5583 38.4445 27.3544 38.2934 27.9703 38.9482ZM19.8287 42.4233C20.5046 43.0948 20.6999 44.1021 20.3244 45.0254C20.2192 45.3108 20.2493 45.3108 20.76 45.0758C21.8415 44.5721 23.1484 44.824 24.1098 45.7473C24.921 46.5195 25.2665 47.51 25.1763 48.8531C25.0862 50.1961 24.5304 51.1195 23.4188 51.7406C22.0218 52.5296 20.745 52.2946 19.6334 51.0523C18.5368 49.8436 18.3115 48.1144 19.0325 46.7378L19.3179 46.2006H18.702C17.0346 46.2341 16.0883 44.4378 16.9595 42.8765C17.1248 42.5576 17.275 42.3058 17.29 42.3058C17.305 42.3058 17.5754 42.205 17.9059 42.0707C18.5819 41.8021 19.363 41.9532 19.8287 42.4233Z" fill="#FF5602"/>
</svg>
